<svg xmlns="http://www.w3.org/2000/svg" viewBox="0 0 24 24">
  <path d="M12 2C6.477 2 2 6.477 2 12s4.477 10 10 10 10-4.477 10-10S17.523 2 12 2zm4.586 14.424a1.777 1.777 0 01-.958.276c-.411 0-.818-.132-1.15-.383-.535-.405-.666-1.036-.265-1.575.414-.556 1.081-.702 1.64-.344.551.352.68 1.001.314 1.553-.07.175-.159.33-.271.473zm-1.614-3.966c-.131.389-.502.649-.903.649-.108 0-.216-.019-.322-.057-.497-.168-.773-.703-.607-1.203.131-.389.502-.649.903-.649.108 0 .216.019.322.057.497.168.773.703.607 1.203zm-3.609 5.33C7.178 14.068 5.83 11.531 5.332 9.205c-.127-.593.248-1.169.837-1.296.591-.126 1.169.248 1.296.837.423 1.982 1.594 4.212 4.482 4.953.584.151.935.752.784 1.336-.126.49-.571.819-1.059.819-.091 0-.182-.012-.272-.036 1.838-.477 3.436-1.612 4.459-3.183.48-.732 1.466-.939 2.198-.46.732.48.939 1.466.46 2.197-1.448 2.212-3.608 3.806-6.074 4.463z" fill="white"/>
</svg>